<svg width="16" height="16" viewBox="0 0 16 16" fill="none" xmlns="http://www.w3.org/2000/svg">
<path d="M14.5462 0.5H8.72798C7.92798 0.5 7.27344 1.17497 7.27344 1.99994V4.62482H8.36435C9.16435 4.62482 9.81889 5.29979 9.81889 6.12476V9.8371C10.5753 10.1971 11.448 10.3471 12.3643 10.1896C14.4953 9.8221 16.0007 7.81218 16.0007 5.58478V1.99994C16.0007 1.17497 15.3462 0.5 14.5462 0.5ZM9.45526 3.87485C9.45526 3.46237 9.78253 3.12489 10.1825 3.12489C10.5825 3.12489 10.9098 3.46237 10.9098 3.87485C10.9098 4.28734 10.5825 4.62482 10.1825 4.62482C9.78253 4.62482 9.45526 4.28734 9.45526 3.87485ZM12.9825 7.15971H10.2771C10.0007 7.15971 9.81889 6.85222 9.95707 6.59724C10.2407 6.10226 10.8807 5.74977 11.6298 5.74977C12.3789 5.74977 13.0189 6.10226 13.3025 6.60474C13.4407 6.85223 13.2589 7.15971 12.9825 7.15971ZM13.0916 4.62482C12.6916 4.62482 12.3643 4.28734 12.3643 3.87485C12.3643 3.46237 12.6916 3.12489 13.0916 3.12489C13.4916 3.12489 13.8189 3.46237 13.8189 3.87485C13.8189 4.28734 13.4916 4.62482 13.0916 4.62482Z" fill="#FF7356"/>
<path d="M7.27273 5.74976H1.45455C0.654545 5.74976 0 6.42473 0 7.24969V10.842C0 13.1294 1.59273 15.1693 3.78909 15.4618C6.45091 15.8143 8.72727 13.6769 8.72727 10.9995V7.24969C8.72727 6.42473 8.07273 5.74976 7.27273 5.74976ZM2.18182 9.12461C2.18182 8.71213 2.50909 8.37464 2.90909 8.37464C3.30909 8.37464 3.63636 8.71213 3.63636 9.12461C3.63636 9.53709 3.30909 9.87458 2.90909 9.87458C2.50909 9.87458 2.18182 9.53709 2.18182 9.12461ZM6.03636 11.562C5.76 12.0645 5.11273 12.417 4.36364 12.417C3.61455 12.417 2.97455 12.0645 2.69091 11.562C2.55273 11.307 2.73455 10.9995 3.01091 10.9995H5.71636C5.99273 10.9995 6.17455 11.307 6.03636 11.562ZM5.81818 9.87458C5.41818 9.87458 5.09091 9.53709 5.09091 9.12461C5.09091 8.71213 5.41818 8.37464 5.81818 8.37464C6.21818 8.37464 6.54545 8.71213 6.54545 9.12461C6.54545 9.53709 6.21818 9.87458 5.81818 9.87458Z" fill="#FF7356"/>
</svg>
