<svg width="16" height="16" viewBox="0 0 16 16" fill="none" xmlns="http://www.w3.org/2000/svg">
<path d="M6.99997 5.6H5.39997V0.32C5.39997 0.143269 5.2567 0 5.07997 0H4.11997C3.94324 0 3.79997 0.143269 3.79997 0.32V5.6H2.19997V0.32C2.19997 0.143269 2.0567 0 1.87997 0H0.91997C0.743239 0 0.59997 0.143269 0.59997 0.32V5.6C0.59997 7.296 1.92797 8.672 3.59997 8.776V15.68C3.59997 15.8567 3.74324 16 3.91997 16H5.27997C5.4567 16 5.59997 15.8567 5.59997 15.68V8.776C7.27197 8.672 8.59997 7.296 8.59997 5.6V0.32C8.59997 0.143269 8.4567 0 8.27997 0H7.31997C7.14324 0 6.99997 0.143269 6.99997 0.32V5.6ZM11 3.2V9.28C11 9.45673 11.1432 9.6 11.32 9.6H13V15.68C13 15.8567 13.1432 16 13.32 16H14.68C14.8567 16 15 15.8567 15 15.68V0.32C15 0.143269 14.8562 -0.00127329 14.68 0.0125372C12.6214 0.173898 11 1.86068 11 3.2Z" fill="#FF66FF"/>
</svg>
